<?xml version="1.0" encoding="UTF-8"?>
<svg xmlns="http://www.w3.org/2000/svg" xmlns:xlink="http://www.w3.org/1999/xlink" width="25pt" height="25pt" viewBox="0 0 25 25" version="1.1">
<g id="surface1">
<path style=" stroke:none;fill-rule:evenodd;fill:rgb(46.666667%,46.666667%,46.666667%);fill-opacity:1;" d="M 12.871094 18.238281 C 12.75 18.246094 12.625 18.25 12.5 18.25 C 9.75 18.25 7.449219 16.320312 6.882812 13.738281 C 9.171875 13.601562 11.128906 12.230469 12.097656 10.28125 C 13.046875 10.910156 13.871094 11.707031 14.53125 12.628906 C 13.429688 13.757812 12.75 15.300781 12.75 17 C 12.75 17.425781 12.792969 17.839844 12.871094 18.238281 Z M 13.371094 18.183594 C 14.433594 18.023438 15.398438 17.570312 16.1875 16.914062 C 16.023438 15.503906 15.542969 14.195312 14.816406 13.054688 C 13.847656 14.082031 13.25 15.472656 13.25 17 C 13.25 17.40625 13.292969 17.800781 13.371094 18.183594 Z M 18.003906 10.828125 C 17.304688 8.53125 15.210938 6.839844 12.707031 6.753906 C 12.734375 7 12.75 7.246094 12.75 7.5 C 12.75 8.320312 12.59375 9.101562 12.304688 9.820312 C 13.316406 10.472656 14.195312 11.3125 14.898438 12.285156 C 15.757812 11.535156 16.828125 11.019531 18.003906 10.828125 Z M 18.128906 11.316406 C 18.207031 11.699219 18.25 12.09375 18.25 12.5 C 18.25 14.050781 17.632812 15.460938 16.632812 16.496094 C 16.421875 15.113281 15.914062 13.824219 15.183594 12.699219 C 15.992188 11.980469 17.007812 11.484375 18.128906 11.316406 Z M 6.796875 13.242188 C 6.765625 13 6.75 12.75 6.75 12.5 C 6.75 11.097656 7.253906 9.8125 8.085938 8.8125 C 9.382812 8.964844 10.597656 9.382812 11.671875 10.015625 C 10.78125 11.847656 8.945312 13.132812 6.796875 13.242188 Z M 12.203125 6.757812 C 10.769531 6.832031 9.472656 7.429688 8.503906 8.367188 C 9.714844 8.554688 10.851562 8.964844 11.871094 9.554688 C 12.117188 8.914062 12.25 8.222656 12.25 7.5 C 12.25 7.25 12.234375 7 12.203125 6.757812 Z M 6.328125 13.5 C 6.277344 13.175781 6.25 12.839844 6.25 12.5 C 6.25 9.046875 9.046875 6.25 12.5 6.25 C 15.953125 6.25 18.75 9.046875 18.75 12.5 C 18.75 15.953125 15.953125 18.75 12.5 18.75 C 9.476562 18.75 6.953125 16.601562 6.375 13.75 C 6.359375 13.667969 6.34375 13.582031 6.328125 13.5 Z M 6.328125 13.5 "/>
</g>
</svg>
