<?xml version="1.0" encoding="UTF-8"?>
<svg xmlns="http://www.w3.org/2000/svg" xmlns:xlink="http://www.w3.org/1999/xlink" width="25pt" height="25pt" viewBox="0 0 25 25" version="1.1">
<g id="surface1">
<path style=" stroke:none;fill-rule:evenodd;fill:rgb(46.666667%,46.666667%,46.666667%);fill-opacity:1;" d="M 17.105469 11.484375 L 17.105469 9.839844 L 16.007812 9.839844 L 16.007812 11.484375 L 14.363281 11.484375 L 14.363281 12.582031 L 16.007812 12.582031 L 16.007812 14.226562 L 17.105469 14.226562 L 17.105469 12.582031 L 18.75 12.582031 L 18.75 11.484375 Z M 12.882812 13.347656 L 12.28125 12.910156 C 12.0625 12.746094 11.84375 12.527344 11.84375 12.144531 C 11.84375 11.761719 12.117188 11.429688 12.390625 11.265625 C 13.101562 10.71875 13.816406 10.117188 13.816406 8.910156 C 13.816406 7.757812 13.101562 7.101562 12.71875 6.773438 L 13.652344 6.773438 L 14.308594 6.003906 L 10.910156 6.003906 C 8.5 6.003906 7.292969 7.539062 7.292969 9.183594 C 7.292969 10.445312 8.28125 11.816406 10.035156 11.816406 L 10.472656 11.816406 C 10.417969 11.980469 10.253906 12.253906 10.253906 12.527344 C 10.253906 13.074219 10.472656 13.292969 10.746094 13.625 C 9.980469 13.679688 8.554688 13.84375 7.511719 14.5 C 6.527344 15.105469 6.25 15.925781 6.25 16.527344 C 6.25 17.789062 7.402344 18.996094 9.867188 18.996094 C 12.828125 18.996094 14.253906 17.351562 14.253906 15.761719 C 14.253906 14.609375 13.652344 14.007812 12.882812 13.347656 Z M 8.71875 8.363281 C 8.71875 7.15625 9.429688 6.609375 10.199219 6.609375 C 11.621094 6.609375 12.390625 8.527344 12.390625 9.621094 C 12.390625 11.046875 11.238281 11.320312 10.800781 11.320312 C 9.429688 11.320312 8.71875 9.621094 8.71875 8.363281 Z M 10.691406 18.226562 C 8.882812 18.226562 7.730469 17.40625 7.730469 16.199219 C 7.730469 14.992188 8.828125 14.609375 9.15625 14.445312 C 9.867188 14.226562 10.800781 14.171875 10.964844 14.171875 L 11.347656 14.171875 C 12.664062 15.105469 13.210938 15.488281 13.210938 16.363281 C 13.210938 17.40625 12.171875 18.226562 10.691406 18.226562 Z M 10.691406 18.226562 "/>
</g>
</svg>
