<?xml version="1.0" encoding="UTF-8"?>
<svg xmlns="http://www.w3.org/2000/svg" xmlns:xlink="http://www.w3.org/1999/xlink" width="25pt" height="25pt" viewBox="0 0 25 25" version="1.1">
<g id="surface1">
<path style=" stroke:none;fill-rule:nonzero;fill:rgb(46.666667%,46.666667%,46.666667%);fill-opacity:1;" d="M 7.808594 16.9375 C 7.808594 17.074219 7.929688 17.191406 8.066406 17.191406 L 9.882812 17.191406 C 10.019531 17.191406 10.136719 17.074219 10.136719 16.9375 L 10.136719 10.914062 C 10.136719 10.777344 10.019531 10.660156 9.882812 10.660156 L 8.066406 10.660156 C 7.929688 10.660156 7.808594 10.777344 7.808594 10.914062 Z M 7.808594 16.9375 "/>
<path style=" stroke:none;fill-rule:nonzero;fill:rgb(46.666667%,46.666667%,46.666667%);fill-opacity:1;" d="M 15.351562 10.601562 C 14.472656 10.601562 13.847656 10.953125 13.515625 11.324219 C 13.4375 11.402344 13.296875 11.34375 13.296875 11.226562 L 13.296875 10.914062 C 13.296875 10.777344 13.179688 10.660156 13.042969 10.660156 L 11.207031 10.660156 C 11.070312 10.660156 10.953125 10.777344 10.953125 10.914062 C 10.972656 12.027344 10.953125 15.882812 10.953125 16.917969 C 10.953125 17.054688 11.070312 17.171875 11.207031 17.171875 L 13.0625 17.171875 C 13.199219 17.171875 13.316406 17.054688 13.316406 16.917969 L 13.316406 13.652344 C 13.316406 13.457031 13.316406 13.261719 13.378906 13.125 C 13.535156 12.734375 13.886719 12.320312 14.492188 12.320312 C 15.292969 12.320312 15.664062 12.929688 15.664062 13.808594 L 15.664062 16.917969 C 15.664062 17.054688 15.78125 17.171875 15.921875 17.171875 L 17.738281 17.171875 C 17.875 17.171875 17.992188 17.054688 17.992188 16.917969 L 17.992188 13.554688 C 17.972656 11.539062 16.820312 10.601562 15.351562 10.601562 Z M 15.351562 10.601562 "/>
<path style=" stroke:none;fill-rule:nonzero;fill:rgb(46.666667%,46.666667%,46.666667%);fill-opacity:1;" d="M 8.964844 9.941406 C 9.707031 9.941406 10.15625 9.472656 10.15625 8.886719 C 10.136719 8.261719 9.707031 7.8125 8.984375 7.8125 C 8.261719 7.8125 7.8125 8.261719 7.8125 8.867188 C 7.8125 9.472656 8.261719 9.941406 8.964844 9.941406 Z M 8.964844 9.941406 "/>
</g>
</svg>
