<?xml version="1.0" encoding="UTF-8"?>
<svg xmlns="http://www.w3.org/2000/svg" xmlns:xlink="http://www.w3.org/1999/xlink" width="25pt" height="25pt" viewBox="0 0 25 25" version="1.1">
<g id="surface1">
<path style=" stroke:none;fill-rule:nonzero;fill:rgb(46.666667%,46.666667%,46.666667%);fill-opacity:1;" d="M 6.101562 10.148438 C 6.101562 9.429688 6.226562 8.75 6.476562 8.113281 C 6.726562 7.476562 7.070312 6.921875 7.511719 6.449219 C 7.949219 5.976562 8.457031 5.566406 9.03125 5.21875 C 9.601562 4.875 10.21875 4.613281 10.878906 4.441406 C 11.539062 4.265625 12.214844 4.179688 12.898438 4.179688 C 13.953125 4.179688 14.933594 4.402344 15.839844 4.84375 C 16.746094 5.289062 17.484375 5.933594 18.050781 6.78125 C 18.617188 7.625 18.898438 8.582031 18.898438 9.648438 C 18.898438 10.289062 18.835938 10.917969 18.710938 11.53125 C 18.582031 12.144531 18.382812 12.734375 18.109375 13.300781 C 17.835938 13.867188 17.503906 14.363281 17.109375 14.796875 C 16.714844 15.226562 16.234375 15.566406 15.660156 15.824219 C 15.085938 16.082031 14.457031 16.210938 13.769531 16.210938 C 13.316406 16.210938 12.867188 16.101562 12.421875 15.890625 C 11.972656 15.675781 11.652344 15.382812 11.460938 15.011719 C 11.394531 15.269531 11.300781 15.644531 11.179688 16.136719 C 11.058594 16.625 10.980469 16.941406 10.945312 17.085938 C 10.910156 17.226562 10.839844 17.464844 10.738281 17.796875 C 10.640625 18.125 10.554688 18.363281 10.480469 18.503906 C 10.40625 18.648438 10.300781 18.855469 10.160156 19.128906 C 10.019531 19.402344 9.867188 19.660156 9.699219 19.90625 C 9.535156 20.148438 9.328125 20.4375 9.078125 20.769531 L 8.941406 20.820312 L 8.851562 20.71875 C 8.75 19.671875 8.699219 19.046875 8.699219 18.839844 C 8.699219 18.226562 8.773438 17.539062 8.914062 16.773438 C 9.058594 16.011719 9.28125 15.054688 9.578125 13.898438 C 9.878906 12.746094 10.054688 12.070312 10.101562 11.871094 C 9.886719 11.4375 9.78125 10.875 9.78125 10.179688 C 9.78125 9.625 9.953125 9.105469 10.300781 8.621094 C 10.648438 8.132812 11.085938 7.890625 11.621094 7.890625 C 12.027344 7.890625 12.34375 8.023438 12.570312 8.296875 C 12.796875 8.566406 12.910156 8.90625 12.910156 9.320312 C 12.910156 9.761719 12.761719 10.398438 12.46875 11.230469 C 12.175781 12.0625 12.03125 12.6875 12.03125 13.101562 C 12.03125 13.519531 12.179688 13.867188 12.480469 14.144531 C 12.78125 14.421875 13.144531 14.558594 13.570312 14.558594 C 13.9375 14.558594 14.277344 14.476562 14.589844 14.308594 C 14.902344 14.144531 15.164062 13.917969 15.375 13.628906 C 15.585938 13.34375 15.773438 13.027344 15.933594 12.679688 C 16.097656 12.332031 16.226562 11.964844 16.316406 11.574219 C 16.40625 11.183594 16.472656 10.816406 16.515625 10.464844 C 16.558594 10.113281 16.578125 9.785156 16.578125 9.46875 C 16.578125 8.316406 16.214844 7.417969 15.484375 6.773438 C 14.753906 6.132812 13.804688 5.808594 12.628906 5.808594 C 11.296875 5.808594 10.183594 6.242188 9.289062 7.105469 C 8.398438 7.96875 7.949219 9.0625 7.949219 10.390625 C 7.949219 10.683594 7.992188 10.964844 8.074219 11.238281 C 8.160156 11.511719 8.25 11.730469 8.34375 11.890625 C 8.441406 12.050781 8.53125 12.203125 8.613281 12.34375 C 8.699219 12.488281 8.738281 12.589844 8.738281 12.648438 C 8.738281 12.835938 8.691406 13.078125 8.589844 13.378906 C 8.488281 13.679688 8.367188 13.828125 8.21875 13.828125 C 8.207031 13.828125 8.148438 13.820312 8.050781 13.800781 C 7.710938 13.699219 7.410156 13.511719 7.144531 13.238281 C 6.882812 12.964844 6.679688 12.652344 6.535156 12.296875 C 6.390625 11.9375 6.285156 11.578125 6.210938 11.214844 C 6.136719 10.851562 6.101562 10.496094 6.101562 10.148438 Z M 6.101562 10.148438 "/>
</g>
</svg>
