<?xml version="1.0" encoding="UTF-8"?>
<svg xmlns="http://www.w3.org/2000/svg" xmlns:xlink="http://www.w3.org/1999/xlink" width="25pt" height="25pt" viewBox="0 0 25 25" version="1.1">
<g id="surface1">
<path style=" stroke:none;fill-rule:nonzero;fill:rgb(46.666667%,46.666667%,46.666667%);fill-opacity:1;" d="M 18.75 8.625 C 18.289062 8.828125 17.796875 8.964844 17.277344 9.027344 C 17.804688 8.710938 18.210938 8.207031 18.402344 7.609375 C 17.90625 7.902344 17.359375 8.117188 16.773438 8.230469 C 16.308594 7.734375 15.640625 7.421875 14.902344 7.421875 C 13.488281 7.421875 12.339844 8.570312 12.339844 9.984375 C 12.339844 10.1875 12.363281 10.382812 12.40625 10.570312 C 10.273438 10.464844 8.382812 9.441406 7.117188 7.890625 C 6.898438 8.269531 6.773438 8.710938 6.773438 9.179688 C 6.773438 10.070312 7.222656 10.855469 7.914062 11.316406 C 7.492188 11.300781 7.097656 11.1875 6.75 10.992188 C 6.75 11.003906 6.75 11.015625 6.75 11.027344 C 6.75 12.269531 7.636719 13.304688 8.808594 13.542969 C 8.59375 13.597656 8.367188 13.632812 8.132812 13.632812 C 7.96875 13.632812 7.804688 13.613281 7.648438 13.585938 C 7.976562 14.605469 8.921875 15.34375 10.046875 15.367188 C 9.167969 16.054688 8.0625 16.464844 6.859375 16.464844 C 6.652344 16.464844 6.449219 16.453125 6.25 16.429688 C 7.382812 17.15625 8.730469 17.578125 10.179688 17.578125 C 14.898438 17.578125 17.476562 13.671875 17.476562 10.285156 C 17.476562 10.171875 17.472656 10.0625 17.46875 9.949219 C 17.96875 9.589844 18.40625 9.136719 18.75 8.625 Z M 18.75 8.625 "/>
</g>
</svg>
