<?xml version="1.0" encoding="UTF-8"?>
<!DOCTYPE svg PUBLIC "-//W3C//DTD SVG 1.1//EN" "http://www.w3.org/Graphics/SVG/1.1/DTD/svg11.dtd">
<!-- Creator: CorelDRAW 2020 (64-Bit) -->
<svg xmlns="http://www.w3.org/2000/svg" xml:space="preserve" width="13px" height="14px" version="1.1" style="shape-rendering:geometricPrecision; text-rendering:geometricPrecision; image-rendering:optimizeQuality; fill-rule:evenodd; clip-rule:evenodd"
viewBox="0 0 13 14"
 xmlns:xlink="http://www.w3.org/1999/xlink"
 xmlns:xodm="http://www.corel.com/coreldraw/odm/2003">
 <defs>
  <style type="text/css">
   <![CDATA[
    .fil0 {fill:#9A9A9A;fill-rule:nonzero}
   ]]>
  </style>
 </defs>
 <g id="Слой_x0020_1">
  <metadata id="CorelCorpID_0Corel-Layer"/>
  <g id="_1921945142928">
   <g>
    <path class="fil0" d="M0.53 12.97l10.94 0 0 -7.95 -10.94 0 0 7.95zm2.99 -9.44l0 -2.24c0,-0.07 -0.03,-0.13 -0.07,-0.17 -0.05,-0.05 -0.07,-0.11 -0.18,-0.07l-0.5 0c-0.07,0 -0.13,0.02 -0.18,0.07 -0.04,0.04 -0.1,0.07 -0.07,0.17l0 2.24c0,0.07 0.03,0.13 0.07,0.18 0.05,0.04 0.07,0.1 0.18,0.07l0.5 0c0.07,0 0.13,-0.03 0.18,-0.07 0.04,-0.05 0.1,-0.07 0.07,-0.18zm5.96 0l0 -2.24c0,-0.07 -0.02,-0.13 -0.07,-0.17 -0.05,-0.05 -0.07,-0.11 -0.18,-0.07l-0.5 0c-0.07,0 -0.13,0.02 -0.17,0.07 -0.05,0.04 -0.11,0.07 -0.07,0.17l0 2.24c0,0.07 0.02,0.13 0.07,0.18 0.04,0.04 0.06,0.1 0.17,0.07l0.5 0c0.07,0 0.13,-0.03 0.18,-0.07 0.05,-0.05 0.11,-0.07 0.07,-0.18zm2.98 -0.5l0 9.94c0,0.27 -0.1,0.5 -0.3,0.7 -0.19,0.19 -0.29,0.42 -0.69,0.29l-10.94 0c-0.27,0 -0.5,-0.1 -0.69,-0.29 -0.2,-0.2 -0.43,-0.3 -0.3,-0.7l0 -9.94c0,-0.27 0.1,-0.5 0.3,-0.7 0.19,-0.19 0.29,-0.42 0.69,-0.29l1 0 0 -0.75c0,-0.34 0.12,-0.63 0.36,-0.87 0.25,-0.25 0.37,-0.54 0.88,-0.37l0.5 0c0.34,0 0.63,0.12 0.87,0.37 0.25,0.24 0.54,0.36 0.37,0.87l0 0.75 2.98 0 0 -0.75c0,-0.34 0.12,-0.63 0.37,-0.87 0.24,-0.25 0.36,-0.54 0.87,-0.37l0.5 0c0.34,0 0.63,0.12 0.88,0.37 0.24,0.24 0.53,0.36 0.36,0.87l0 0.75 1 0c0.27,0 0.5,0.1 0.69,0.29 0.2,0.2 0.43,0.3 0.3,0.7z"/>
   </g>
  </g>
 </g>
</svg>
