<?xml version="1.0" encoding="UTF-8"?>
<!DOCTYPE svg PUBLIC "-//W3C//DTD SVG 1.1//EN" "http://www.w3.org/Graphics/SVG/1.1/DTD/svg11.dtd">
<!-- Creator: CorelDRAW 2020 (64-Bit) -->
<svg xmlns="http://www.w3.org/2000/svg" xml:space="preserve" width="15px" height="11px" version="1.1" style="shape-rendering:geometricPrecision; text-rendering:geometricPrecision; image-rendering:optimizeQuality; fill-rule:evenodd; clip-rule:evenodd"
viewBox="0 0 15 11"
 xmlns:xlink="http://www.w3.org/1999/xlink"
 xmlns:xodm="http://www.corel.com/coreldraw/odm/2003">
 <defs>
  <style type="text/css">
   <![CDATA[
    .fil0 {fill:#071F08;fill-rule:nonzero}
   ]]>
  </style>
 </defs>
 <g id="Слой_x0020_1">
  <metadata id="CorelCorpID_0Corel-Layer"/>
  <g id="_2089512991472">
   <g id="surface1">
    <path class="fil0" d="M-0.5 7l1.66 0 0 -2 -1.66 0 0 2zm0 4l1.66 0 0 -2 -1.66 0 0 2zm0 -8l1.66 0 0 -2 -1.66 0 0 2zm3.34 4l11.66 0 0 -2 -11.66 0 0 2zm0 4l11.66 0 0 -2 -11.66 0 0 2zm0 -10l0 2 11.66 0 0 -2 -11.66 0zm0 0z"/>
   </g>
  </g>
 </g>
</svg>
