<svg width="15.000000000000002" height="14" xmlns="http://www.w3.org/2000/svg" version="1.1" xml:space="preserve">
 <g id="Layer_1">
  <title>Layer 1</title>
  <g id="svg_2" stroke="null">
   <desc stroke="null" fill="#fafafa">Created with Fabric.js 3.6.2</desc>
   <g transform="matrix(0.428719 0 0 0.428719 9.53745 157.236)" id="svg_1" stroke="null">
    <path id="svg_3" d="m-3.57242,-343.38292c-2.4,0 -4.3,-1.9 -4.4,-4.3l-7.3,-3.7c-0.8,0.6 -1.6,0.8 -2.6,0.8c-2.4,0 -4.4,-2 -4.4,-4.4c0,-2.4 2,-4.4 4.4,-4.4c0.9,0 1.8,0.3 2.6,0.8l7.3,-3.7c0,-2.4 2,-4.3 4.4,-4.3c2.4,0 4.4,2 4.4,4.4c0,2.4 -2,4.4 -4.4,4.4c-0.9,0 -1.8,-0.3 -2.6,-0.8l-7.1,3.7l7.2,3.6c0.7,-0.5 1.6,-0.8 2.6,-0.8c2.4,0 4.4,2 4.4,4.4c-0.1,2.3 -2.1,4.3 -4.5,4.3z" stroke-linecap="round" stroke="null" fill="#fafafa"/>
   </g>
  </g>
  <g stroke="null">
   <desc fill="#cccccc" stroke="null">Created with Fabric.js 3.6.2</desc>

   <g stroke="null" id="svg_4" transform="matrix(0.0393075 0 0 0.0393075 -64.9955 -78.9359)">
    <path fill="#cccccc" stroke="null" stroke-linecap="round" d="m2184.9591,2268.09695c-33.8,0 -64.8,15.8 -84.8,41.8c-20,-26 -51,-41.8 -84.8,-41.8c-59.1,0 -107.2,48.3 -107.2,107.7c0,27.9 10.6,54.4 29.9,74.6l151.2,152.7l10.9,11l10.9,-11l148.3,-149.8c21,-20.3 32.8,-47.9 32.8,-77.5c0,-59.4 -48.1,-107.7 -107.2,-107.7l0,0z" transform="translate(-256 -256)"/>
   </g>
  </g>
 </g>

</svg>