<?xml version="1.0" encoding="UTF-8"?>
<svg xmlns="http://www.w3.org/2000/svg" xmlns:xlink="http://www.w3.org/1999/xlink" width="15pt" height="13pt" viewBox="0 0 15 13" version="1.1">
<g id="surface1">
<path style=" stroke:none;fill-rule:nonzero;fill:#555555;fill-opacity:1;" d="M 6.875 13.304688 L 6.640625 13.085938 C 1.359375 8.363281 -0.0625 6.703125 -0.0625 3.992188 C -0.0625 1.757812 1.59375 -0.0273438 3.59375 -0.0273438 C 5.277344 -0.0273438 6.234375 1.023438 6.875 1.820312 C 7.511719 1.023438 8.46875 -0.0273438 10.152344 -0.0273438 C 12.183594 -0.0273438 13.808594 1.789062 13.808594 3.992188 C 13.808594 6.703125 12.386719 8.363281 7.105469 13.085938 Z M 3.59375 0.800781 C 1.996094 0.800781 0.691406 2.238281 0.691406 3.992188 C 0.691406 6.320312 2.027344 7.851562 6.875 12.222656 C 11.71875 7.851562 13.054688 6.320312 13.054688 3.992188 C 13.054688 2.238281 11.75 0.800781 10.152344 0.800781 C 8.699219 0.800781 7.917969 1.757812 7.308594 2.523438 L 6.875 3.066406 L 6.4375 2.523438 C 5.828125 1.757812 5.046875 0.800781 3.59375 0.800781 Z M 3.59375 0.800781 "/>
</g>
</svg>
