<?xml version="1.0" encoding="UTF-8"?>
<!DOCTYPE svg PUBLIC "-//W3C//DTD SVG 1.1//EN" "http://www.w3.org/Graphics/SVG/1.1/DTD/svg11.dtd">
<!-- Creator: CorelDRAW 2020 (64-Bit) -->
<svg xmlns="http://www.w3.org/2000/svg" xml:space="preserve" width="14px" height="13px" version="1.1" style="shape-rendering:geometricPrecision; text-rendering:geometricPrecision; image-rendering:optimizeQuality; fill-rule:evenodd; clip-rule:evenodd"
viewBox="0 0 14 13"
 xmlns:xlink="http://www.w3.org/1999/xlink"
 xmlns:xodm="http://www.corel.com/coreldraw/odm/2003">
 <defs>
  <style type="text/css">
   <![CDATA[
    .fil0 {fill:#CCCCCC;fill-rule:nonzero}
   ]]>
  </style>
 </defs>
 <g id="Слой_x0020_1">
  <metadata id="CorelCorpID_0Corel-Layer"/>
  <g id="_1886045474192">
   <g id="Layer_1">
    <path class="fil0" d="M10.27 6.81c-0.62,1.31 -1.96,2.4 -3.26,2.4 -1.59,0 -2.75,-1.08 -3.36,-2.39 -3.58,1.73 -3.13,6.08 -3.13,6.08 0,0.6 0.51,0.69 1.1,0.69l5.39 0 5.38 0c0.59,0 1.1,-0.09 1.1,-0.69 0,0 0.36,-4.37 -3.22,-6.09z"/>
   </g>
   <g id="Layer_1_0">
    <path class="fil0" d="M7 8.5c1.8,0 3.22,-2.38 3.22,-4.35 0,-1.97 -1.45,-3.57 -3.24,-3.57 -1.8,0 -3.25,1.6 -3.25,3.57 0,1.97 1.48,4.35 3.27,4.35z"/>
   </g>
  </g>
 </g>
</svg>
