<?xml version="1.0" encoding="UTF-8"?>
<!DOCTYPE svg PUBLIC "-//W3C//DTD SVG 1.1//EN" "http://www.w3.org/Graphics/SVG/1.1/DTD/svg11.dtd">
<!-- Creator: CorelDRAW 2020 (64-Bit) -->
<svg xmlns="http://www.w3.org/2000/svg" xml:space="preserve" width="15px" height="16px" version="1.1" style="shape-rendering:geometricPrecision; text-rendering:geometricPrecision; image-rendering:optimizeQuality; fill-rule:evenodd; clip-rule:evenodd"
viewBox="0 0 15 16"
 xmlns:xlink="http://www.w3.org/1999/xlink"
 xmlns:xodm="http://www.corel.com/coreldraw/odm/2003">
 <defs>
  <style type="text/css">
   <![CDATA[
    .fil0 {fill:white}
   ]]>
  </style>
 </defs>
 <g id="Слой_x0020_1">
  <metadata id="CorelCorpID_0Corel-Layer"/>
  <g id="_1886044542640">
   <g id="search">
    <path class="fil0" d="M8.9 11.53c-0.97,0.74 -2.16,1.17 -3.45,1.17 -3.29,0 -5.95,-2.84 -5.95,-6.35 0,-3.51 2.66,-6.35 5.95,-6.35 3.29,0 5.95,2.84 5.95,6.35 0,1.37 -0.4,2.64 -1.1,3.68l3.91 4.17c0.39,0.41 0.39,1.07 0,1.48l-0.01 0.02c-0.38,0.4 -1.01,0.41 -1.39,0l-3.91 -4.17 0 0zm-3.45 -0.32c2.52,0 4.55,-2.18 4.55,-4.86 0,-2.68 -2.03,-4.86 -4.55,-4.86 -2.51,0 -4.55,2.18 -4.55,4.86 0,2.68 2.04,4.86 4.55,4.86l0 0z"/>
   </g>
  </g>
 </g>
</svg>
