<svg width="15.000000000000002" height="13.999999999999998" xmlns="http://www.w3.org/2000/svg" xml:space="preserve" version="1.1">
 <g id="Layer_1">
  <title>Layer 1</title>
  <g id="svg_1" stroke="null">
   <g id="svg_5" stroke="null">
    <title stroke="null">Layer 1</title>
    <g id="svg_6" stroke="null">
     <desc fill="#fafafa" stroke="null">Created with Fabric.js 3.6.2</desc>
     <g id="svg_7" transform="matrix(0.615353 0 0 0.615353 12.5894 224.803)" stroke="null">
      <path fill="#cccccc" stroke-linecap="round" d="m-1.67324,-342.01312c-2.4,0 -4.3,-1.9 -4.4,-4.3l-7.3,-3.7c-0.8,0.6 -1.6,0.8 -2.6,0.8c-2.4,0 -4.4,-2 -4.4,-4.4c0,-2.4 2,-4.4 4.4,-4.4c0.9,0 1.8,0.3 2.6,0.8l7.3,-3.7c0,-2.4 2,-4.3 4.4,-4.3c2.4,0 4.4,2 4.4,4.4c0,2.4 -2,4.4 -4.4,4.4c-0.9,0 -1.8,-0.3 -2.6,-0.8l-7.1,3.7l7.2,3.6c0.7,-0.5 1.6,-0.8 2.6,-0.8c2.4,0 4.4,2 4.4,4.4c-0.1,2.3 -2.1,4.3 -4.5,4.3z" id="svg_8" stroke="null"/>
     </g>
    </g>
   </g>
  </g>
 </g>

</svg>