<svg width="10" height="10" xmlns="http://www.w3.org/2000/svg" xml:space="preserve" version="1.1">
 <g id="Layer_1">
  <title>Layer 1</title>
  <g stroke="null" id="svg_2">
   <desc fill="#fafafa" stroke="null">Created with Fabric.js 3.6.2</desc>
   <g stroke="null" id="svg_1" transform="matrix(0.428719 0 0 0.428719 9.53745 157.236)">
    <path fill="#fafafa" stroke="null" stroke-linecap="round" d="m-3.57242,-343.38292c-2.4,0 -4.3,-1.9 -4.4,-4.3l-7.3,-3.7c-0.8,0.6 -1.6,0.8 -2.6,0.8c-2.4,0 -4.4,-2 -4.4,-4.4c0,-2.4 2,-4.4 4.4,-4.4c0.9,0 1.8,0.3 2.6,0.8l7.3,-3.7c0,-2.4 2,-4.3 4.4,-4.3c2.4,0 4.4,2 4.4,4.4c0,2.4 -2,4.4 -4.4,4.4c-0.9,0 -1.8,-0.3 -2.6,-0.8l-7.1,3.7l7.2,3.6c0.7,-0.5 1.6,-0.8 2.6,-0.8c2.4,0 4.4,2 4.4,4.4c-0.1,2.3 -2.1,4.3 -4.5,4.3z" id="svg_3"/>
   </g>
  </g>
 </g>

</svg>