<svg xmlns="http://www.w3.org/2000/svg" width="13" height="14" shape-rendering="geometricPrecision" text-rendering="geometricPrecision" image-rendering="optimizeQuality" fill-rule="evenodd" clip-rule="evenodd"><path d="M.53 12.97h10.94V5.02H.53v7.95zm2.99-9.44V1.29c0-.07-.03-.13-.07-.17-.05-.05-.07-.11-.18-.07h-.5c-.07 0-.13.02-.18.07-.04.04-.1.07-.07.17v2.24c0 .07.03.13.07.18.05.04.07.1.18.07h.5c.07 0 .13-.03.18-.07.04-.05.1-.07.07-.18zm5.96 0V1.29c0-.07-.02-.13-.07-.17-.05-.05-.07-.11-.18-.07h-.5c-.07 0-.13.02-.17.07-.05.04-.11.07-.07.17v2.24c0 .07.02.13.07.18.04.04.06.1.17.07h.5c.07 0 .13-.03.18-.07.05-.05.11-.07.07-.18zm2.98-.5v9.94c0 .27-.1.5-.3.7-.19.19-.29.42-.69.29H.53c-.27 0-.5-.1-.69-.29-.2-.2-.43-.3-.3-.7V3.03c0-.27.1-.5.3-.7.19-.19.29-.42.69-.29h1v-.75c0-.34.12-.63.36-.87.25-.25.37-.54.88-.37h.5c.34 0 .63.12.87.37.25.24.54.36.37.87v.75h2.98v-.75c0-.34.12-.63.37-.87.24-.25.36-.54.87-.37h.5c.34 0 .63.12.88.37.24.24.53.36.36.87v.75h1c.27 0 .5.1.69.29.2.2.43.3.3.7z" fill="#9a9a9a" fill-rule="nonzero"/></svg>