<svg width="15" height="14" xmlns="http://www.w3.org/2000/svg"><path d="M8.006 10.021c-1.029 0-1.844-.814-1.886-1.843L2.99 6.59c-.343.258-.686.343-1.115.343A1.903 1.903 0 01-.01 5.048c0-1.029.857-1.886 1.886-1.886.386 0 .772.128 1.115.343l3.13-1.587C6.12.89 6.977.075 8.006.075S9.892.932 9.892 1.96a1.903 1.903 0 01-1.886 1.887c-.386 0-.772-.129-1.115-.343L3.847 5.09l3.087 1.543a1.91 1.91 0 011.115-.343c1.029 0 1.886.858 1.886 1.887-.043.986-.9 1.843-1.93 1.843z" stroke-linecap="round" fill="#fafafa" stroke-width=".429" stroke="null"/><path fill="#ccc" stroke-linecap="round" d="M10.827.155a4.197 4.197 0 00-3.333 1.643A4.197 4.197 0 004.16.155C1.837.155-.053 2.053-.053 4.388c0 1.097.416 2.138 1.175 2.932l5.943 6.003.429.432.428-.432 5.83-5.889a4.21 4.21 0 001.289-3.046c0-2.335-1.89-4.233-4.214-4.233h0z" stroke-width=".039" stroke="null"/></svg>