<svg xmlns="http://www.w3.org/2000/svg" width="14" height="13" shape-rendering="geometricPrecision" text-rendering="geometricPrecision" image-rendering="optimizeQuality" fill-rule="evenodd" clip-rule="evenodd"><defs><style>.fil0{fill:#ccc;fill-rule:nonzero}</style></defs><g id="Слой_x0020_1"><g id="_1886045474192"><path class="fil0" d="M10.27 6.81c-.62 1.31-1.96 2.4-3.26 2.4-1.59 0-2.75-1.08-3.36-2.39C.07 8.55.52 12.9.52 12.9c0 .6.51.69 1.1.69h10.77c.59 0 1.1-.09 1.1-.69 0 0 .36-4.37-3.22-6.09z" id="Layer_1"/><path class="fil0" d="M7 8.5c1.8 0 3.22-2.38 3.22-4.35 0-1.97-1.45-3.57-3.24-3.57-1.8 0-3.25 1.6-3.25 3.57C3.73 6.12 5.21 8.5 7 8.5z" id="Layer_1_0"/></g></g></svg>