<svg xmlns="http://www.w3.org/2000/svg" width="15" height="16" shape-rendering="geometricPrecision" text-rendering="geometricPrecision" image-rendering="optimizeQuality" fill-rule="evenodd" clip-rule="evenodd"><path d="M8.9 11.53c-.97.74-2.16 1.17-3.45 1.17C2.16 12.7-.5 9.86-.5 6.35S2.16 0 5.45 0s5.95 2.84 5.95 6.35c0 1.37-.4 2.64-1.1 3.68l3.91 4.17c.39.41.39 1.07 0 1.48l-.01.02c-.38.4-1.01.41-1.39 0L8.9 11.53zm-3.45-.32c2.52 0 4.55-2.18 4.55-4.86S7.97 1.49 5.45 1.49C2.94 1.49.9 3.67.9 6.35s2.04 4.86 4.55 4.86z" fill="#fff"/></svg>