<svg width="15" height="14" xmlns="http://www.w3.org/2000/svg"><path fill="#ccc" stroke-linecap="round" d="M11.56 14.344c-1.477 0-2.646-1.169-2.708-2.646L4.36 9.421c-.492.37-.984.493-1.6.493-1.477 0-2.707-1.231-2.707-2.708S1.283 4.5 2.76 4.5c.554 0 1.108.184 1.6.492l4.492-2.277c0-1.477 1.23-2.646 2.708-2.646 1.477 0 2.707 1.23 2.707 2.708 0 1.476-1.23 2.707-2.707 2.707-.554 0-1.108-.184-1.6-.492L5.59 7.268l4.431 2.215a2.742 2.742 0 011.6-.492c1.477 0 2.708 1.23 2.708 2.707-.062 1.415-1.292 2.646-2.77 2.646z" stroke-width=".615" stroke="null"/></svg>