<svg width="10" height="10" xmlns="http://www.w3.org/2000/svg"><path fill="#fafafa" stroke-linecap="round" d="M8.006 10.021c-1.029 0-1.844-.814-1.886-1.843L2.99 6.59c-.343.258-.686.343-1.115.343A1.903 1.903 0 01-.01 5.048c0-1.029.857-1.886 1.886-1.886.386 0 .772.128 1.115.343l3.13-1.587C6.12.89 6.977.075 8.006.075S9.892.932 9.892 1.96a1.903 1.903 0 01-1.886 1.887c-.386 0-.772-.129-1.115-.343L3.847 5.09l3.087 1.543a1.91 1.91 0 011.115-.343c1.029 0 1.886.858 1.886 1.887-.043.986-.9 1.843-1.93 1.843z" stroke-width=".429" stroke="null"/></svg>